<svg xmlns="http://www.w3.org/2000/svg" width="32" height="32" viewBox="0 0 32 32"><defs><style>.a,.b,.c{fill:none;}.a,.b{stroke:#fff;stroke-width:2px;}.b{stroke-linecap:round;stroke-linejoin:round;}.c{opacity:0;}</style></defs><g transform="translate(-756 -260)"><g transform="translate(756 260)"><path class="a" d="M.132,3.46C1.2-1.153,8.146-1.153,9.2,3.46c.627,2.707-1.093,5-2.587,6.427a2.849,2.849,0,0,1-3.907,0C1.226,8.46-.494,6.167.132,3.46Z" transform="translate(2.628 2.673)"/><path class="a" d="M.132,3.46c1.067-4.613,8.053-4.613,9.12,0,.627,2.707-1.093,5-2.6,6.427a2.866,2.866,0,0,1-3.92,0C1.226,8.46-.494,6.167.132,3.46Z" transform="translate(19.961 18.673)"/><path class="b" d="M6.237,0H9.81a2.671,2.671,0,0,1,1.76,4.68L.917,14a2.662,2.662,0,0,0,1.747,4.667H6.237" transform="translate(9.763 6.667)"/><path class="b" d="M.636.5H.652" transform="translate(6.679 6.833)"/><path class="b" d="M.636.5H.652" transform="translate(24.012 22.833)"/><path class="c" d="M0,0H32V32H0Z" transform="translate(32 32) rotate(180)"/></g></g></svg>